<svg xmlns:dc="http://purl.org/dc/elements/1.1/" xmlns:cc="http://creativecommons.org/ns#" xmlns:rdf="http://www.w3.org/1999/02/22-rdf-syntax-ns#" xmlns:svg="http://www.w3.org/2000/svg" xmlns="http://www.w3.org/2000/svg" xmlns:xlink="http://www.w3.org/1999/xlink" id="svg429576" viewBox="0 0 1024 768" height="768" width="1024" version="1.1">
  <metadata id="metadata429582" fill="#FFFFFF">
    <rdf:rdf fill="#FFFFFF">
      <cc:work rdf:about="" fill="#FFFFFF">
        <dc:format fill="#FFFFFF">image/svg+xml</dc:format>
        <dc:type rdf:resource="http://purl.org/dc/dcmitype/StillImage" fill="#FFFFFF"></dc:type>
      </cc:work>
    </rdf:rdf>
  </metadata>
  <defs id="defs429580"></defs>
  <linearGradient spreadMethod="pad" y2="30%" x2="-10%" y1="120%" x1="30%" id="3d_gradient2-logo-6836c21c-4de1-487f-837b-adb9f906a1a4" fill="#FFFFFF">
    <stop id="stop429557" stop-opacity="1" stop-color="#ffffff" offset="0%" fill="#FFFFFF"></stop>
    <stop id="stop429559" stop-opacity="1" stop-color="#000000" offset="100%" fill="#FFFFFF"></stop>
  </linearGradient>
  <linearGradient gradientTransform="rotate(-30)" spreadMethod="pad" y2="30%" x2="-10%" y1="120%" x1="30%" id="3d_gradient3-logo-6836c21c-4de1-487f-837b-adb9f906a1a4" fill="#FFFFFF">
    <stop id="stop429562" stop-opacity="1" stop-color="#ffffff" offset="0%" fill="#FFFFFF"></stop>
    <stop id="stop429564" stop-opacity="1" stop-color="#cccccc" offset="50%" fill="#FFFFFF"></stop>
    <stop id="stop429566" stop-opacity="1" stop-color="#000000" offset="100%" fill="#FFFFFF"></stop>
  </linearGradient>
  <g id="logo-group" fill="#FFFFFF">
    <image xlink:href="" id="container" x="272" y="144" width="480" height="480" style="display: none;" transform="translate(0 0)" fill="#FFFFFF"></image>
    <g id="logo-center" transform="translate(1.1368683772161603e-13 0)" fill="#FFFFFF">
      <image xlink:href="" id="icon_container" style="display: none;" x="0" y="0" fill="#FFFFFF"></image>
      <g id="slogan" style="font-style:normal;font-weight:700;font-size:32px;line-height:1;font-family:Chivo;font-variant-ligatures:none;text-align:center;text-anchor:middle" transform="translate(0 0)" fill="#FFFFFF"></g>
      <g id="title" style="font-style:normal;font-weight:300;font-size:72px;line-height:1;font-family:'Montserrat Light Alt1';font-variant-ligatures:none;text-align:center;text-anchor:middle" transform="translate(0 0)" fill="#FFFFFF">
        <path id="path429585" style="font-style:normal;font-weight:300;font-size:72px;line-height:1;font-family:'Montserrat Light Alt1';font-variant-ligatures:none;text-align:center;text-anchor:middle" d="m 303.86206,-1.512 c 3.312,1.296 6.84,1.872 10.584,1.872 3.96,0 7.344,-0.576 10.08,-1.8 2.736,-1.152 4.752,-2.808 6.048,-4.824 1.296,-2.016 2.016,-4.248 2.016,-6.696 0,-2.952 -0.792,-5.328 -2.376,-7.056 -1.584,-1.728 -3.456,-3.096 -5.616,-3.96 -2.232,-0.864 -5.184,-1.728 -8.856,-2.664 -3.312,-0.792 -5.976,-1.584 -7.848,-2.304 -1.944,-0.72 -3.528,-1.728 -4.824,-3.096 -1.296,-1.296 -1.944,-3.096 -1.944,-5.4 0,-2.952 1.152,-5.4 3.6,-7.272 2.376,-1.872 5.904,-2.808 10.584,-2.808 2.304,0 4.68,0.36 7.128,1.08 2.448,0.72 4.68,1.8 6.696,3.168 l 1.368,-2.952 c -2.016,-1.368 -4.32,-2.448 -6.984,-3.312 -2.736,-0.792 -5.472,-1.224 -8.208,-1.224 -4.032,0 -7.344,0.648 -10.008,1.8 -2.664,1.224 -4.608,2.88 -5.904,4.896 -1.296,2.016 -1.944,4.248 -1.944,6.696 0,3.024 0.72,5.472 2.304,7.272 1.584,1.8 3.456,3.096 5.688,3.96 2.232,0.864 5.184,1.8 8.928,2.664 3.24,0.792 5.832,1.512 7.776,2.232 1.872,0.72 3.528,1.8 4.824,3.096 1.296,1.368 1.944,3.168 1.944,5.4 0,2.952 -1.224,5.328 -3.672,7.128 -2.448,1.872 -6.12,2.736 -10.872,2.736 -3.312,0 -6.48,-0.576 -9.504,-1.728 -3.024,-1.152 -5.4,-2.736 -7.128,-4.608 l -1.656,2.736 c 1.872,2.016 4.464,3.672 7.776,4.968 z" stroke-width="0px" stroke-linejoin="miter" stroke-miterlimit="2" fill="#E9515A" stroke="#E9515A" transform="translate(0 306.172) translate(303.29912125 54.5684) scale(0.91) translate(-296.08606 50.76)"></path>
        <path id="path429587" style="font-style:normal;font-weight:300;font-size:72px;line-height:1;font-family:'Montserrat Light Alt1';font-variant-ligatures:none;text-align:center;text-anchor:middle" d="m 359.50006,-17.352 20.304,-33.048 h -3.816 l -18.216,29.664 -18.216,-29.664 h -4.032 l 20.304,33.048 V 0 h 3.672 z" stroke-width="0px" stroke-linejoin="miter" stroke-miterlimit="2" fill="#E9515A" stroke="#E9515A" transform="translate(0 306.172) translate(342.82770125 54.896) scale(0.91) translate(-335.52406 50.4)"></path>
        <path id="path429589" style="font-style:normal;font-weight:300;font-size:72px;line-height:1;font-family:'Montserrat Light Alt1';font-variant-ligatures:none;text-align:center;text-anchor:middle" d="m 428.72244,-50.4 h -3.672 v 43.776 l -34.272,-43.776 h -3.096 V 0 h 3.672 V -43.776 L 425.69844,0 h 3.024 z" stroke-width="0px" stroke-linejoin="miter" stroke-miterlimit="2" fill="#E9515A" stroke="#E9515A" transform="translate(0 306.172) translate(393.93182705 54.896) scale(0.91) translate(-387.68244 50.4)"></path>
        <path id="path429591" style="font-style:normal;font-weight:300;font-size:72px;line-height:1;font-family:'Montserrat Light Alt1';font-variant-ligatures:none;text-align:center;text-anchor:middle" d="m 454.24306,-2.952 c 3.96,2.232 8.424,3.312 13.392,3.312 3.6,0 6.912,-0.576 10.008,-1.8 3.096,-1.152 5.76,-2.952 7.92,-5.256 l -2.304,-2.376 c -4.104,4.032 -9.288,6.048 -15.48,6.048 -4.248,0 -8.064,-0.936 -11.52,-2.88 -3.456,-1.872 -6.192,-4.536 -8.136,-7.92 -2.016,-3.384 -2.952,-7.2 -2.952,-11.376 0,-4.176 0.936,-7.92 2.952,-11.304 1.944,-3.384 4.68,-6.048 8.136,-7.992 3.456,-1.872 7.272,-2.88 11.52,-2.88 6.264,0 11.448,2.016 15.48,5.976 l 2.304,-2.376 c -2.16,-2.304 -4.824,-4.032 -7.848,-5.184 -3.096,-1.152 -6.48,-1.8 -10.08,-1.8 -4.968,0 -9.432,1.152 -13.392,3.312 -3.96,2.232 -7.056,5.256 -9.36,9.144 -2.304,3.888 -3.384,8.28 -3.384,13.104 0,4.896 1.08,9.216 3.384,13.104 2.304,3.888 5.4,6.984 9.36,9.144 z" stroke-width="0px" stroke-linejoin="miter" stroke-miterlimit="2" fill="#E9515A" stroke="#E9515A" transform="translate(0 306.172) translate(446.54495125 54.5684) scale(0.91) translate(-441.49906 50.76)"></path>
        <path id="path429593" style="font-style:normal;font-weight:300;font-size:72px;line-height:1;font-family:'Montserrat Light Alt1';font-variant-ligatures:none;text-align:center;text-anchor:middle" d="m 530.54844,-27.216 h -32.616 v 3.24 h 32.616 z m 0,-23.184 h -32.616 v 3.312 h 32.616 z m -32.616,47.088 V 0 h 32.616 v -3.312 z" stroke-width="0px" stroke-linejoin="miter" stroke-miterlimit="2" fill="#2B4872" stroke="#2B4872" transform="translate(0 306.172) translate(501.53932704999994 54.896) scale(0.91) translate(-497.93244 50.4)"></path>
        <path id="path429595" style="font-style:normal;font-weight:300;font-size:72px;line-height:1;font-family:'Montserrat Light Alt1';font-variant-ligatures:none;text-align:center;text-anchor:middle" d="m 587.20681,-50.4 h -3.672 v 43.776 l -34.272,-43.776 h -3.096 V 0 h 3.672 V -43.776 L 584.18281,0 h 3.024 z" stroke-width="0px" stroke-linejoin="miter" stroke-miterlimit="2" fill="#2B4872" stroke="#2B4872" transform="translate(0 306.172) translate(549.0726037499999 54.896) scale(0.91) translate(-546.16681 50.4)"></path>
        <path id="path429597" style="font-style:normal;font-weight:300;font-size:72px;line-height:1;font-family:'Montserrat Light Alt1';font-variant-ligatures:none;text-align:center;text-anchor:middle" d="m 640.80744,-24.984 v 17.352 c -3.816,3.096 -8.568,4.608 -14.328,4.608 -4.32,0 -8.208,-0.936 -11.664,-2.88 -3.456,-1.944 -6.192,-4.608 -8.208,-7.992 -2.016,-3.384 -2.952,-7.128 -2.952,-11.304 0,-4.176 0.936,-7.92 2.952,-11.304 1.944,-3.384 4.68,-6.048 8.136,-7.992 3.456,-1.872 7.416,-2.88 11.736,-2.88 3.168,0 6.048,0.504 8.64,1.44 2.592,0.936 4.968,2.448 7.128,4.536 l 2.304,-2.448 c -2.232,-2.232 -4.896,-3.96 -7.992,-5.112 -3.096,-1.152 -6.48,-1.8 -10.152,-1.8 -5.04,0 -9.576,1.152 -13.608,3.312 -4.032,2.232 -7.128,5.256 -9.432,9.144 -2.304,3.888 -3.384,8.28 -3.384,13.104 0,4.896 1.08,9.216 3.384,13.104 2.304,3.888 5.4,6.984 9.432,9.144 4.032,2.232 8.496,3.312 13.536,3.312 3.456,0 6.768,-0.504 9.936,-1.656 3.168,-1.08 5.832,-2.664 8.064,-4.824 v -18.864 z" stroke-width="0px" stroke-linejoin="miter" stroke-miterlimit="2" fill="#2B4872" stroke="#2B4872" transform="translate(0 306.172) translate(601.6857370499998 54.5684) scale(0.91) translate(-599.98344 50.76)"></path>
        <path id="path429599" style="font-style:normal;font-weight:300;font-size:72px;line-height:1;font-family:'Montserrat Light Alt1';font-variant-ligatures:none;text-align:center;text-anchor:middle" d="M 660.49494,-50.4 V 0 h 3.672 v -50.4 z" stroke-width="0px" stroke-linejoin="miter" stroke-miterlimit="2" fill="#2B4872" stroke="#2B4872" transform="translate(0 306.172) translate(660.3912020499998 54.896) scale(0.91) translate(-660.49494 50.4)"></path>
        <path id="path429601" style="font-style:normal;font-weight:300;font-size:72px;line-height:1;font-family:'Montserrat Light Alt1';font-variant-ligatures:none;text-align:center;text-anchor:middle" d="m 722.76931,-50.4 h -3.672 v 43.776 l -34.272,-43.776 h -3.096 V 0 h 3.672 V -43.776 L 719.74531,0 h 3.024 z" stroke-width="0px" stroke-linejoin="miter" stroke-miterlimit="2" fill="#2B4872" stroke="#2B4872" transform="translate(0 306.172) translate(683.3544787499998 54.896) scale(0.91) translate(-681.72931 50.4)"></path>
      </g>
      <image xlink:href="" id="icon" style="display: none;" x="0" y="0" fill="#FFFFFF"></image>
    </g>
  </g>
</svg>